<svg xmlns="http://www.w3.org/2000/svg" xmlns:xlink="http://www.w3.org/1999/xlink" preserveAspectRatio="xMidYMid" width="42" height="36" viewBox="0 0 42 36">
  <defs>
    <style>
      .cls-1 {
        fill: #d54e21;
        fill-rule: evenodd;
      }
    </style>
  </defs>
  <path d="M38.030,30.773 L36.666,30.773 L36.666,35.349 C36.666,35.546 36.614,35.754 36.238,35.937 L36.150,35.980 L36.136,35.994 C36.091,35.999 36.028,35.999 36.000,35.999 C35.803,35.999 35.695,35.952 35.539,35.799 L29.854,30.773 L21.000,30.773 C18.682,30.773 16.649,28.847 16.649,26.651 L16.649,22.255 L14.303,22.255 L7.796,28.605 C7.638,28.759 7.534,28.804 7.335,28.804 C7.291,28.804 7.241,28.804 7.203,28.803 L7.136,28.737 L6.973,28.698 C6.733,28.639 6.669,28.329 6.669,28.154 L6.669,22.256 L4.987,22.256 C2.283,22.256 -0.000,20.027 -0.000,17.390 L-0.000,4.865 C-0.000,2.227 2.283,-0.001 4.987,-0.001 L27.013,-0.001 C29.716,-0.001 31.999,2.227 31.999,4.865 L31.999,13.742 L37.776,13.742 C40.065,13.742 42.000,15.573 42.000,17.739 L42.000,26.651 C42.000,28.923 40.219,30.773 38.030,30.773 ZM30.668,4.865 C30.668,2.931 28.994,1.297 27.013,1.297 L4.987,1.297 C3.005,1.297 1.331,2.931 1.331,4.865 L1.331,17.389 C1.331,19.322 3.005,20.956 4.987,20.956 L7.335,20.956 C7.764,20.956 8.000,21.187 8.000,21.605 L8.000,26.379 L13.398,21.112 C13.507,21.006 13.556,20.957 13.941,20.957 L27.013,20.957 C28.994,20.957 30.668,19.446 30.668,17.513 L30.668,4.865 ZM40.669,17.863 C40.669,16.307 39.371,15.041 37.776,15.041 L31.999,15.041 L31.999,17.389 C31.999,20.117 29.809,22.255 27.013,22.255 L17.980,22.255 L17.980,26.651 C17.980,28.181 19.363,29.474 21.000,29.474 L30.392,29.474 C30.592,29.474 30.695,29.518 30.854,29.673 L35.335,33.617 L35.335,30.124 C35.335,29.705 35.571,29.475 36.000,29.475 L38.030,29.475 C39.509,29.475 40.669,28.235 40.669,26.652 L40.669,17.863 ZM23.335,11.797 L8.664,11.797 C8.236,11.797 8.000,11.562 8.000,11.137 C8.000,10.712 8.236,10.477 8.664,10.477 L23.335,10.477 C23.763,10.477 23.999,10.712 23.999,11.137 C23.999,11.562 23.763,11.797 23.335,11.797 ZM23.335,7.868 L8.664,7.868 C8.236,7.868 8.000,7.633 8.000,7.207 C8.000,6.782 8.236,6.548 8.664,6.548 L23.335,6.548 C23.763,6.548 23.999,6.782 23.999,7.207 C23.999,7.633 23.763,7.868 23.335,7.868 ZM8.664,14.406 L17.335,14.406 C17.763,14.406 17.999,14.641 17.999,15.067 C17.999,15.492 17.763,15.727 17.335,15.727 L8.664,15.727 C8.236,15.727 8.000,15.492 8.000,15.067 C8.000,14.641 8.236,14.406 8.664,14.406 Z" class="cls-1"/>
</svg>
