<svg xmlns="http://www.w3.org/2000/svg" xmlns:xlink="http://www.w3.org/1999/xlink" preserveAspectRatio="xMidYMid" width="32" height="42" viewBox="0 0 32 42">
  <defs>
    <style>
      .cls-1 {
        fill: #d54e21;
        fill-rule: evenodd;
      }
    </style>
  </defs>
  <path d="M31.404,28.326 C30.886,28.329 29.668,29.907 29.669,32.056 C29.669,34.204 30.888,35.784 31.407,35.788 C31.734,35.788 32.000,36.068 32.000,36.412 C32.000,36.745 31.746,37.022 31.432,37.036 L31.416,37.036 C31.413,37.036 31.409,37.036 31.404,37.037 L16.216,37.037 L16.216,40.974 C16.216,41.362 16.001,41.723 15.669,41.893 C15.547,41.956 15.405,41.989 15.257,41.989 C15.030,41.989 14.805,41.909 14.640,41.768 L12.241,39.746 L9.839,41.771 C9.670,41.915 9.455,41.995 9.235,41.995 C9.090,41.995 8.945,41.960 8.817,41.895 C8.477,41.722 8.266,41.369 8.266,40.974 L8.266,37.037 L4.726,37.037 C2.120,37.037 -0.000,34.803 -0.000,32.056 L-0.000,4.985 C-0.000,2.239 2.120,0.005 4.726,0.005 L30.278,0.005 C31.226,0.005 31.998,0.818 31.998,1.817 L31.998,27.702 C31.998,28.046 31.732,28.326 31.404,28.326 ZM9.453,40.498 L11.872,38.459 C11.977,38.371 12.108,38.323 12.242,38.323 C12.377,38.323 12.508,38.371 12.612,38.459 L15.031,40.498 L15.031,32.397 L9.453,32.397 L9.453,40.498 ZM4.726,35.788 L8.266,35.788 L8.266,32.168 C8.266,31.605 8.701,31.147 9.235,31.147 L15.248,31.147 C15.782,31.147 16.216,31.605 16.216,32.168 L16.216,35.788 L29.579,35.788 L29.431,35.544 C28.828,34.548 28.482,33.277 28.482,32.056 C28.482,30.834 28.828,29.563 29.431,28.570 L29.579,28.326 L4.726,28.326 C2.774,28.326 1.186,30.000 1.186,32.056 C1.186,34.114 2.774,35.788 4.726,35.788 ZM30.813,1.817 C30.813,1.507 30.573,1.254 30.278,1.254 L4.726,1.254 C2.774,1.254 1.186,2.927 1.186,4.985 L1.186,28.744 L1.441,28.483 C2.301,27.606 3.420,27.109 4.605,27.077 L30.813,27.077 L30.813,1.817 ZM7.276,5.636 L24.722,5.636 C25.470,5.636 26.079,6.283 26.079,7.079 L26.079,13.598 C26.079,14.395 25.470,15.043 24.722,15.043 L7.276,15.043 C6.528,15.043 5.919,14.395 5.919,13.598 L5.919,7.079 C5.919,6.283 6.528,5.636 7.276,5.636 ZM24.722,13.769 C24.811,13.769 24.883,13.693 24.883,13.598 L24.883,6.918 L7.124,6.909 L7.116,13.760 L24.722,13.769 Z" class="cls-1"/>
</svg>
