<svg xmlns="http://www.w3.org/2000/svg" xmlns:xlink="http://www.w3.org/1999/xlink" preserveAspectRatio="xMidYMid" width="38" height="34" viewBox="0 0 38 34">
  <defs>
    <style>
      .cls-1 {
        fill: #d54e21;
        fill-rule: evenodd;
      }
    </style>
  </defs>
  <path d="M36.150,29.165 L23.568,29.165 L23.780,31.804 L23.779,31.805 C23.793,31.894 23.885,32.295 24.461,32.635 L26.096,32.635 C26.465,32.635 26.764,32.941 26.764,33.318 C26.764,33.694 26.465,34.000 26.096,34.000 L24.292,34.000 L11.904,34.000 C11.535,34.000 11.236,33.694 11.236,33.318 C11.236,32.941 11.535,32.635 11.904,32.635 L13.510,32.635 C14.151,32.256 14.193,31.804 14.193,31.800 L14.193,31.800 L14.195,31.756 L14.402,29.165 L1.850,29.165 C0.830,29.165 -0.000,28.317 -0.000,27.274 L-0.000,1.891 C-0.000,0.848 0.830,-0.000 1.850,-0.000 L36.150,-0.000 C37.170,-0.000 38.000,0.848 38.000,1.891 L38.000,27.274 C38.000,28.317 37.170,29.165 36.150,29.165 ZM22.659,32.635 C22.527,32.367 22.450,32.086 22.443,31.841 L22.229,29.165 L15.742,29.165 L15.527,31.841 C15.521,32.086 15.443,32.367 15.312,32.635 L22.659,32.635 ZM36.665,1.891 C36.665,1.601 36.434,1.365 36.150,1.365 L1.850,1.365 C1.566,1.365 1.335,1.601 1.335,1.891 L1.335,22.966 L36.665,22.966 L36.665,1.891 ZM36.665,24.330 L1.335,24.330 L1.335,27.274 C1.335,27.564 1.566,27.800 1.850,27.800 L36.150,27.800 C36.434,27.800 36.665,27.564 36.665,27.274 L36.665,24.330 ZM19.000,27.238 C18.367,27.238 17.852,26.712 17.852,26.065 C17.852,25.419 18.367,24.892 19.000,24.892 C19.633,24.892 20.148,25.419 20.148,26.065 C20.148,26.712 19.633,27.238 19.000,27.238 ZM19.000,2.382 C19.387,2.382 19.703,2.704 19.703,3.100 C19.703,3.496 19.387,3.818 19.000,3.818 C18.612,3.818 18.297,3.496 18.297,3.100 C18.297,2.704 18.612,2.382 19.000,2.382 Z" class="cls-1"/>
</svg>
