<svg xmlns="http://www.w3.org/2000/svg" xmlns:xlink="http://www.w3.org/1999/xlink" preserveAspectRatio="xMidYMid" width="29" height="29" viewBox="0 0 29 29">
  <defs>
    <style>
      .cls-1 {
        fill: #aaa;
        fill-rule: evenodd;
      }
    </style>
  </defs>
  <path d="M14.500,29.000 C6.492,29.000 -0.000,22.508 -0.000,14.500 C-0.000,6.492 6.492,-0.000 14.500,-0.000 C22.508,-0.000 29.000,6.492 29.000,14.500 C29.000,22.508 22.508,29.000 14.500,29.000 ZM24.000,14.000 C24.000,13.448 23.552,13.000 23.000,13.000 L16.000,13.000 L16.000,6.000 C16.000,5.448 15.552,5.000 15.000,5.000 L14.000,5.000 C13.448,5.000 13.000,5.448 13.000,6.000 L13.000,13.000 L6.000,13.000 C5.448,13.000 5.000,13.448 5.000,14.000 L5.000,15.000 C5.000,15.552 5.448,16.000 6.000,16.000 L13.000,16.000 L13.000,23.000 C13.000,23.552 13.448,24.000 14.000,24.000 L15.000,24.000 C15.552,24.000 16.000,23.552 16.000,23.000 L16.000,16.000 L23.000,16.000 C23.552,16.000 24.000,15.552 24.000,15.000 L24.000,14.000 Z" class="cls-1"/>
</svg>
